<?xml version="1.0" encoding="UTF-8" standalone="no"?>
<svg
   width="1200"
   height="200"
   version="1.1"
   id="svg4"
   sodipodi:docname="banner.svg"
   inkscape:version="1.4 (86a8ad7, 2024-10-11)"
   xml:space="preserve"
   xmlns:inkscape="http://www.inkscape.org/namespaces/inkscape"
   xmlns:sodipodi="http://sodipodi.sourceforge.net/DTD/sodipodi-0.dtd"
   xmlns="http://www.w3.org/2000/svg"
   xmlns:svg="http://www.w3.org/2000/svg"><sodipodi:namedview
     id="namedview4"
     pagecolor="#505050"
     bordercolor="#eeeeee"
     borderopacity="1"
     inkscape:showpageshadow="0"
     inkscape:pageopacity="0"
     inkscape:pagecheckerboard="0"
     inkscape:deskcolor="#505050"
     showguides="true"
     inkscape:zoom="1.12"
     inkscape:cx="510.26786"
     inkscape:cy="196.875"
     inkscape:window-width="1920"
     inkscape:window-height="991"
     inkscape:window-x="-9"
     inkscape:window-y="-9"
     inkscape:window-maximized="1"
     inkscape:current-layer="svg4"><sodipodi:guide
       position="0,200"
       orientation="0,1200"
       id="guide6"
       inkscape:locked="false" /><sodipodi:guide
       position="1200,200"
       orientation="200,0"
       id="guide7"
       inkscape:locked="false" /><sodipodi:guide
       position="1200,0"
       orientation="0,-1200"
       id="guide8"
       inkscape:locked="false" /><sodipodi:guide
       position="0,0"
       orientation="-200,0"
       id="guide9"
       inkscape:locked="false" /><sodipodi:guide
       position="411.58161,121.51234"
       orientation="0,-1"
       id="guide10"
       inkscape:locked="false" /><sodipodi:guide
       position="623.11542,304.33115"
       orientation="1,0"
       id="guide11"
       inkscape:locked="false" /></sodipodi:namedview><defs
     id="defs2"><linearGradient
       id="grad1"
       x1="0"
       y1="0"
       x2="489.89795"
       y2="0"
       gradientTransform="matrix(2.4494897,0,0,0.40824829,4.0609137,2.7072758)"
       gradientUnits="userSpaceOnUse"><stop
         offset="0%"
         style="stop-color:#2a6bbf;stop-opacity:1"
         id="stop1" /><stop
         offset="100%"
         style="stop-color:#4a8edd;stop-opacity:1"
         id="stop2" /></linearGradient></defs><rect
     width="100%"
     height="100%"
     fill="url(#grad1)"
     id="rect2"
     style="fill:#217844"
     x="0.489485"
     y="0.028704438" /><path
     d="M50,150 Q600,50 1150,150"
     stroke="rgba(255,255,255,0.2)"
     stroke-width="2"
     fill="none"
     id="path3" /><text
     x="50%"
     y="50%"
     dominant-baseline="middle"
     text-anchor="middle"
     fill="#ffffff"
     font-family="Arial"
     font-size="48px"
     font-weight="bold"
     id="text2"
     style="white-space:pre;inline-size:138.879;display:inline"
     xml:space="preserve" /><path
     style="fill:#005544;stroke-width:0.201527"
     d="m 582.17201,200.5325 c 0.0299,-0.55316 0.29633,-5.35815 0.59142,-10.67775 0.66536,-11.99585 0.97748,-23.40894 0.80003,-29.25537 -0.0739,-2.44913 -0.1669,-4.45295 -0.2057,-4.45295 -0.039,0 -1.43125,0.65639 -3.09428,1.45865 -2.86283,1.3811 -5.77642,3.32179 -8.67364,5.77729 -0.51275,0.43452 -0.90546,0.61994 -1.16632,0.55065 -0.3019,-0.0802 -0.62773,0.19534 -1.40242,1.186 -0.55512,0.70976 -1.53219,1.75698 -2.17146,2.32716 l -1.16225,1.03669 -0.74113,-0.6488 c -0.40758,-0.35684 -0.7761,-0.6116 -0.81881,-0.56613 -0.0424,0.0455 -0.32607,0.57996 -0.62955,1.18775 -0.60688,1.21534 -2.25047,2.80109 -3.31685,3.20004 -0.61959,0.2318 -0.70981,0.21336 -1.2523,-0.25606 -0.66985,-0.57967 -0.87945,-0.62949 -0.87945,-0.20905 0,0.63593 -0.71081,1.47334 -2.28345,2.69021 -0.90172,0.6977 -1.74154,1.30545 -1.86633,1.35056 -0.12478,0.0451 -0.59424,-0.23094 -1.04328,-0.61343 l -0.81648,-0.69543 -0.39926,0.96687 c -0.42627,1.032 -1.78366,2.30034 -3.19838,2.98845 l -0.77187,0.37545 -0.59026,-0.51079 -0.59034,-0.51081 -0.3893,0.85006 c -0.36637,0.8002 -2.02085,2.37091 -3.28578,3.11948 -0.50834,0.30084 -0.53892,0.28831 -1.33629,-0.54682 l -0.81598,-0.85471 v 0.63158 c 0,0.81564 -1.4943,2.19843 -3.25163,3.01053 l -1.23652,0.57143 -0.8026,-0.83375 -0.80253,-0.83375 -0.23062,0.54646 c -0.44396,1.05207 -1.62988,1.91546 -3.46896,2.5255 l -1.2042,0.39945 -0.59092,-0.90196 c -0.47445,-0.72415 -0.60704,-0.82644 -0.67284,-0.5189 -0.16109,0.75324 -1.1178,1.6121 -2.42535,2.17738 -2.26484,0.97909 -2.2012,0.98713 -2.86864,-0.36288 l -0.5842,-1.18166 -0.52613,0.72195 c -0.75791,1.04007 -1.38348,1.37698 -3.17669,1.71074 -0.87472,0.16281 -1.74055,0.33787 -1.92406,0.38903 -0.23677,0.066 -0.47836,-0.18581 -0.83152,-0.86679 -0.27374,-0.5279 -0.56201,-0.95981 -0.64061,-0.95981 -0.0789,0 -0.32474,0.18154 -0.54689,0.40343 -0.63263,0.63178 -1.87006,1.11875 -3.28794,1.29389 l -1.3009,0.16068 -0.42959,-0.93378 c -0.39985,-0.86905 -0.45534,-0.91283 -0.79953,-0.63147 -0.59325,0.48445 -2.4634,1.04792 -3.4786,1.04792 -0.88111,0 -0.94973,-0.0389 -1.18044,-0.67033 -0.28013,-0.7667 -0.21292,-0.73574 -0.99343,-0.45767 -0.33854,0.12064 -1.69809,0.20067 -3.14155,0.18495 -1.86807,-0.0204 -2.95289,0.0668 -4.08049,0.32764 l -1.53601,0.35537 0.44355,-0.68396 c 2.44362,-3.76858 5.9537,-6.71698 7.99657,-6.71698 0.37143,0 0.67524,-0.0491 0.67524,-0.10914 0,-0.06 -0.30065,-0.50382 -0.6681,-0.98621 -0.81864,-1.07471 -0.73656,-1.23204 1.10517,-2.11803 1.2224,-0.58805 1.49306,-0.64661 2.58469,-0.55937 0.6706,0.0536 1.21924,0.0735 1.21924,0.0442 0,-0.0293 -0.19839,-0.45833 -0.44081,-0.95342 -0.2425,-0.49509 -0.3922,-1.01486 -0.33264,-1.15505 0.0598,-0.14019 0.75692,-0.54328 1.54972,-0.89578 1.22463,-0.54453 1.66785,-0.6409 2.94773,-0.6409 h 1.50635 l -0.37459,-1.11741 -0.37459,-1.11741 1.20528,-0.49533 c 1.39635,-0.57388 3.73181,-0.79746 4.49196,-0.43003 0.46706,0.22575 0.47587,0.21324 0.33347,-0.47221 -0.0806,-0.38727 -0.19464,-0.81814 -0.25388,-0.9575 -0.0689,-0.16214 0.32109,-0.44284 1.08291,-0.77949 1.45168,-0.64149 3.23867,-0.73981 4.3195,-0.23765 l 0.71081,0.33022 -0.13791,-0.49621 c -0.42486,-1.52889 -0.42602,-1.52418 0.46365,-1.84571 1.88086,-0.67971 3.7736,-0.76676 5.18799,-0.23859 0.31984,0.11943 0.33829,0.0611 0.15909,-0.50335 -0.40218,-1.26646 -0.3068,-1.45096 0.8679,-1.6785 1.49763,-0.2901 3.68513,-0.25834 4.54448,0.0659 l 0.72443,0.27337 0.064,-0.88817 c 0.0623,-0.86721 0.084,-0.89202 0.91218,-1.05168 0.89208,-0.17197 4.05324,-0.0776 5.02117,0.1499 0.52455,0.12329 0.57331,0.0844 0.63612,-0.50706 0.0656,-0.61871 0.10791,-0.64599 1.23444,-0.79912 1.20411,-0.16369 4.44187,-0.0708 5.20202,0.14923 0.39047,0.113 0.42361,0.0553 0.35291,-0.61391 l -0.0781,-0.73864 1.55553,-0.32863 c 1.98679,-0.41973 4.42892,-0.42761 5.30779,-0.0172 l 0.65639,0.30659 -0.12063,-0.81209 -0.12054,-0.8121 3.32357,0.10195 c 1.82794,0.0561 3.58319,0.19426 3.90046,0.30709 0.46623,0.1658 0.61244,0.14774 0.76231,-0.0942 0.15436,-0.24908 1.14339,-0.3434 5.89074,-0.56181 4.994,-0.22976 12.49402,-0.88359 12.74599,-1.11117 0.24657,-0.22275 -7.68993,-0.40339 -16.14151,-0.36739 -8.38736,0.0357 -9.55351,0.005 -9.76486,-0.25592 -0.21666,-0.26755 -0.35283,-0.26726 -1.39577,0.003 -1.16499,0.30177 -4.84148,0.75494 -7.90004,0.97376 l -1.65505,0.11841 0.14754,-1.20597 c 0.14489,-1.18353 0.1399,-1.19983 -0.26394,-0.87585 -1.37301,1.10142 -5.77268,1.34695 -9.24355,0.51586 -0.79488,-0.19032 -0.79521,-0.1909 -0.79521,-1.22564 v -1.03524 l -0.96294,0.38472 c -1.2366,0.49406 -4.14936,0.75517 -6.49886,0.58259 -1.01329,-0.0744 -1.89083,-0.17912 -1.95006,-0.23263 -0.059,-0.0536 -0.13152,-0.46103 -0.16059,-0.90557 -0.0291,-0.44455 -0.0781,-0.80827 -0.1095,-0.80827 -0.0307,0 -0.56118,0.18753 -1.17786,0.41673 -0.9337,0.34707 -1.6578,0.43044 -4.33196,0.4988 l -3.21093,0.0821 -0.25413,-1.36092 -0.25413,-1.36092 -0.50095,0.3559 c -0.91933,0.65315 -2.26111,0.85381 -4.9258,0.73665 -3.27655,-0.14405 -3.51033,-0.21194 -3.35872,-0.97499 0.0648,-0.32773 0.17987,-0.95632 0.25497,-1.39689 l 0.13649,-0.80104 -0.92606,0.41798 c -1.23244,0.55631 -4.52345,0.55673 -6.43929,7.8e-4 -1.41704,-0.41118 -1.42834,-0.43581 -1.10774,-2.41938 l 0.14887,-0.9213 -0.58087,0.36531 c -1.43458,0.90229 -3.64999,1.05858 -5.82461,0.41092 -2.09802,-0.62485 -2.17312,-0.70866 -1.91476,-2.13501 0.11997,-0.66202 0.19216,-1.22987 0.16043,-1.26189 -0.0316,-0.032 -0.37859,0.1185 -0.77079,0.33446 -1.03871,0.57194 -3.27024,0.53734 -5.42027,-0.084 -2.39835,-0.69315 -2.32441,-0.61759 -2.00315,-2.04814 0.1492,-0.66466 0.32284,-1.40183 0.38572,-1.63817 0.11382,-0.42753 0.11025,-0.42815 -0.70283,-0.1213 -1.1806,0.44554 -3.17603,0.26415 -5.27156,-0.47919 -0.93303,-0.33097 -1.92123,-0.75897 -2.19605,-0.95111 l -0.49963,-0.34934 0.55263,-1.38379 c 0.30398,-0.76109 0.55271,-1.46102 0.55271,-1.55541 0,-0.0944 -0.40558,-0.0391 -0.90122,0.12288 -1.0574,0.34555 -2.81107,0.24875 -4.09012,-0.22575 -1.09562,-0.40648 -2.85452,-1.41785 -2.85452,-1.64136 0,-0.0963 0.38165,-0.74247 0.84813,-1.43604 0.46656,-0.69357 0.84821,-1.29531 0.84821,-1.33722 0,-0.0419 -0.45326,-0.0783 -1.00722,-0.0807 -2.13009,-0.01 -4.44279,-1.24605 -7.48606,-4.00227 -1.70931,-1.54802 -5.13748,-5.35534 -4.97598,-5.52619 0.0274,-0.0289 0.59542,0.0758 1.26244,0.23274 2.09695,0.49332 4.0603,0.55554 7.01161,0.22218 2.40208,-0.27131 2.89722,-0.27697 3.84928,-0.0439 l 1.09255,0.26741 0.26269,-0.84735 c 0.14447,-0.46603 0.43374,-0.93004 0.64285,-1.03112 0.91667,-0.4431 3.7564,0.0144 5.47526,0.88213 0.51417,0.25953 0.95489,0.44907 0.97956,0.42119 0.0249,-0.0278 0.23395,-0.56779 0.46532,-1.19982 l 0.42053,-1.14914 1.91542,0.0141 c 1.62092,0.0119 2.09155,0.0919 3.06072,0.52021 0.62997,0.27837 1.42369,0.76849 1.76381,1.08917 l 0.61851,0.58305 0.66935,-1.48631 c 0.36811,-0.81747 0.76106,-1.47007 0.87322,-1.45023 0.11207,0.0199 1.295,0.17823 2.62863,0.35197 3.105,0.4045 4.31477,1.00645 5.4128,2.69312 0.19755,0.3034 0.33222,0.11415 0.92057,-1.29396 l 0.68921,-1.64932 1.28727,0.27123 c 2.69311,0.56744 5.45965,2.25291 5.45965,3.32616 0,0.64722 0.28811,0.42729 1.02301,-0.78102 0.67957,-1.1173 0.72908,-1.15435 1.37833,-1.03048 2.65838,0.50718 4.97556,1.77184 5.83923,3.18682 0.30771,0.5043 0.60729,0.91577 0.66561,0.91438 0.0581,-0.002 0.48774,-0.52039 0.95422,-1.15335 0.98321,-1.33395 0.92672,-1.33035 3.44894,-0.21992 2.14022,0.94226 3.77809,2.29528 4.14163,3.42144 l 0.2754,0.85303 0.81507,-1.06895 c 0.44836,-0.58791 0.89714,-1.11471 0.99734,-1.17066 0.27639,-0.15427 3.11189,1.68739 4.36295,2.83368 0.60837,0.55748 1.27813,1.33314 1.48823,1.72367 l 0.38216,0.71006 0.79936,-0.68114 0.79929,-0.68114 1.10525,0.47502 c 2.66694,1.14628 4.62224,2.9052 4.98561,4.48484 l 0.16234,0.70561 0.97116,-0.85064 c 0.53419,-0.46786 1.01595,-0.97945 1.07062,-1.13687 0.0806,-0.23107 0.27997,-0.17982 1.03638,0.26604 3.58111,2.11081 5.48499,3.74711 5.83806,5.01764 0.10418,0.37502 0.18784,0.3376 1.01712,-0.45511 l 0.90354,-0.86375 1.34377,0.64692 c 0.73913,0.3558 1.82835,1.04733 2.42053,1.53672 1.10592,0.91392 2.6671,3.05736 2.6671,3.66174 0,0.51164 0.20968,0.42301 1.30547,-0.55181 l 1.00191,-0.89135 0.56641,0.3352 c 0.97973,0.57979 3.92572,3.21824 4.93095,4.41611 0.53036,0.63204 0.99451,1.18454 1.03157,1.22778 0.0374,0.0433 0.26078,-0.0796 0.49729,-0.2729 0.42021,-0.34344 0.4458,-0.33821 1.11456,0.22775 1.62291,1.37337 8.59306,5.83132 9.93251,6.35265 0.51176,0.19917 1.35989,0.5405 1.88469,0.75852 2.47477,1.02804 5.82028,2.33582 5.97539,2.33582 0.18177,0 -3.58145,-3.17441 -8.20659,-6.92247 -1.51358,-1.22656 -5.08987,-3.89075 -7.94722,-5.92041 -2.85743,-2.02966 -5.507,-3.91335 -5.88808,-4.18596 -0.57256,-0.40957 -0.67092,-0.58714 -0.56633,-1.02235 0.0894,-0.37208 0.0424,-0.5267 -0.16134,-0.5267 -0.87405,0 -5.64183,-2.56247 -9.03444,-4.85562 l -1.1247,-0.76021 0.98147,-0.90004 0.98156,-0.90005 -0.8454,-0.12208 c -2.42734,-0.35059 -5.27671,-2.27462 -8.04699,-5.43382 l -0.65498,-0.74686 0.82587,-0.84953 c 0.96394,-0.99163 1.0108,-1.13674 0.36678,-1.13695 -1.44661,-3.8e-4 -4.83848,-2.08401 -7.53474,-4.62855 l -0.9082,-0.85704 0.64003,-0.72739 c 0.67051,-0.76205 0.67483,-1.0648 0.0149,-1.0648 -1.16656,0 -3.94058,-1.54711 -6.24954,-3.48543 l -1.47337,-1.23686 0.89349,-1.27782 0.89349,-1.27782 -0.69244,-1.5e-4 c -1.05067,-2e-4 -3.08066,-0.96855 -4.58418,-2.18664 -1.42045,-1.15078 -3.01287,-2.72553 -2.98114,-2.94814 0.0108,-0.0726 0.57415,-0.577985 1.25297,-1.123078 1.27083,-1.020565 1.3485,-1.21145 0.49298,-1.21145 -0.90255,0 -2.46606,-0.826936 -3.78548,-2.002175 -1.3039,-1.161342 -2.85644,-3.058449 -2.85644,-3.49031 0,-0.126865 0.57622,-0.688228 1.28055,-1.247463 l 1.28046,-1.016795 -1.03098,-0.118603 c -1.4619,-0.168168 -2.53526,-0.679267 -3.75906,-1.789829 -1.00299,-0.91024 -2.43266,-3.006856 -2.43898,-3.576834 0,-0.143258 0.54707,-0.709589 1.21932,-1.258509 l 1.22215,-0.998037 -0.69968,-0.0074 c -1.29267,-0.0138 -3.03729,-1.069358 -4.28145,-2.590526 -0.77053,-0.942114 -2.12253,-2.986043 -2.12253,-3.208861 0,-0.06102 0.71297,-0.625029 1.58444,-1.253319 l 1.58445,-1.142354 -0.96876,-0.334168 c -1.50087,-0.517702 -3.07759,-2.104582 -4.32224,-4.350213 -0.58229,-1.05055 -1.05865,-2.012088 -1.05865,-2.136744 0,-0.124664 0.82204,-0.672943 1.82677,-1.218398 1.74645,-0.948101 1.80011,-0.997239 1.21932,-1.116811 -1.09337,-0.225084 -2.61949,-1.294918 -3.46347,-2.427877 -0.85445,-1.146978 -1.82013,-3.425707 -1.6357,-3.859802 0.059,-0.138601 0.92664,-0.498049 1.92821,-0.798782 1.00174,-0.300733 1.82121,-0.601368 1.82121,-0.668073 0,-0.06669 -0.23544,-0.218185 -0.52321,-0.336616 -0.61519,-0.253164 -1.69494,-1.522596 -2.26692,-2.665115 -1.1851,-2.366994 -1.80327,-6.886837 -1.55296,-11.353862 l 0.1556,-2.777107 0.55637,0.670332 c 1.40524,1.69299 4.42343,4.147222 6.47435,5.264658 1.5395,0.838746 2.35681,1.433347 3.05773,2.224515 l 0.95663,1.079788 0.96095,-0.550423 c 1.03214,-0.591192 1.40715,-0.580424 2.37865,0.06833 1.1286,0.753619 3.16208,3.619919 3.16208,4.457096 0,0.430055 0.32815,0.35737 1.72509,-0.382115 0.69643,-0.368679 1.32001,-0.670332 1.38564,-0.670332 0.0656,0 0.7722,0.522861 1.57032,1.161926 1.6352,1.309413 2.40233,2.504568 2.77776,4.327857 l 0.2381,1.156284 1.69618,-0.847436 c 1.63254,-0.815611 1.7098,-0.83432 2.05623,-0.498049 1.59126,1.544459 3.63819,3.77125 3.9543,4.301617 0.28038,0.470355 0.38539,1.071 0.38913,2.224195 0,0.868913 0.0532,1.578084 0.11107,1.575932 0.0582,-0.0025 0.90795,-0.423837 1.88801,-0.93708 l 1.782,-0.933171 0.4688,0.506394 c 1.54822,1.672598 2.85885,4.275467 2.85885,5.677662 0,0.375389 -0.13617,0.976888 -0.30265,1.336656 -0.34361,0.742901 -0.45061,0.747673 1.64558,-0.07342 0.5636,-0.220805 1.13616,-0.398097 1.27224,-0.393991 0.35831,0.01084 1.55304,1.542784 2.26792,2.908177 0.86167,1.645512 1.15012,3.03308 0.88327,4.247757 -0.11805,0.537019 -0.17944,1.008787 -0.13641,1.048373 0.0432,0.03959 0.82155,-0.111154 1.73016,-0.334997 1.88601,-0.464614 1.77602,-0.511502 2.72667,1.16181 1.51308,2.663185 2.0029,5.552974 1.15427,6.810071 -0.49248,0.729514 -0.55147,0.719806 1.47951,0.243472 0.87339,-0.204822 1.66296,-0.304675 1.75459,-0.22188 0.0917,0.08279 0.45061,1.165999 0.7977,2.40713 0.70956,2.537847 0.83908,4.819566 0.324,5.711368 l -0.30439,0.526983 1.41895,-0.118948 1.41896,-0.11894 0.69385,1.698724 c 1.22738,3.005089 1.39071,5.124156 0.50004,6.487566 l -0.41098,0.62909 0.61535,0.11115 c 0.56916,0.10283 2.54889,-0.13471 2.93943,-0.3527 0.0935,-0.0521 0.52937,1.04574 0.96868,2.43979 0.95754,3.03821 1.20495,5.47935 0.65606,6.47311 -0.43707,0.79134 -0.44172,0.77828 0.20088,0.55761 0.29916,-0.10273 0.97233,-0.18679 1.49604,-0.18679 0.94625,0 0.95547,0.007 1.47786,1.03715 0.61518,1.21364 1.1399,3.29291 1.1399,4.51707 0,0.76158 -0.35748,2.56436 -0.74753,3.76963 -0.10858,0.33553 -0.0581,0.40395 0.25679,0.34699 0.21567,-0.039 0.97857,-0.11713 1.69535,-0.17353 l 1.30323,-0.10257 0.35748,1.67083 c 0.19664,0.91894 0.41057,3.06677 0.47553,4.77293 l 0.11805,3.10211 0.5425,0.0581 c 0.48816,0.0522 0.56816,0.18271 0.79945,1.30295 0.27889,1.35079 1.93104,7.32399 2.61891,9.46836 0.42901,1.33736 5.44303,10.77751 5.6332,10.6058 0.0557,-0.0507 0.008,-0.77434 -0.10601,-1.60818 -0.1144,-0.83383 -0.45069,-3.41215 -0.74736,-5.7296 -0.29658,-2.31744 -0.72368,-4.85993 -0.94899,-5.64997 -0.57132,-2.00352 -3.67283,-10.30191 -4.34832,-11.63467 l -0.55803,-1.10087 0.55354,-0.39868 0.55362,-0.39869 -1.37201,-1.85348 c -1.4948,-2.01933 -3.2817,-5.14035 -3.93593,-6.87467 l -0.41406,-1.09759 1.68671,-0.79258 1.68671,-0.79257 -1.35,-1.1173 c -2.3323,-1.93025 -3.87778,-4.54133 -4.40964,-7.45 -0.23843,-1.30369 -0.23195,-1.3458 0.26294,-1.71107 0.27897,-0.20596 1.01404,-0.51948 1.63338,-0.69671 l 1.12619,-0.32223 -0.59608,-0.26827 c -0.83551,-0.3761 -1.8468,-1.4552 -2.45783,-2.62271 -0.41937,-0.80133 -2.69726,-6.776998 -2.69726,-7.075777 0,-0.04427 0.40558,-0.186475 0.90122,-0.316067 0.83534,-0.218414 2.92414,-1.330997 2.90761,-1.548722 0,-0.05264 -0.40932,-0.268136 -0.90064,-0.478814 -1.91608,-0.821532 -3.58676,-3.908521 -4.25229,-7.856974 l -0.12993,-0.770571 1.39652,-0.660295 c 1.39146,-0.657906 1.3947,-0.661355 0.89607,-0.953153 -0.85453,-0.50002 -1.62997,-1.373294 -2.4099,-2.713818 -0.75874,-1.304099 -2.22554,-5.065075 -2.22554,-5.706325 0,-0.265574 0.46057,-0.498583 1.93403,-0.978481 l 1.93419,-0.6299 -0.77045,-0.356975 c -1.05732,-0.489935 -2.12453,-1.886972 -2.75101,-3.601317 -0.52903,-1.447785 -0.98288,-3.825283 -0.98288,-5.148995 v -0.716209 l 1.96144,-0.553602 c 1.07884,-0.304478 2.0039,-0.581632 2.05574,-0.615896 0.0515,-0.03425 -0.23768,-0.309373 -0.64326,-0.611355 -1.65714,-1.233698 -2.58436,-3.680637 -2.59823,-6.856843 -0.008,-1.182261 0.0474,-2.200879 0.1168,-2.263593 0.0698,-0.06275 0.9892,-0.252178 2.04394,-0.421028 l 1.91767,-0.307008 -0.9131,-0.725983 c -1.06297,-0.845078 -1.68804,-2.032998 -2.0456,-3.88775 -0.23137,-1.199894 -0.18643,-4.588857 0.064,-4.814902 0.0565,-0.05117 1.21343,-0.146773 2.57065,-0.212468 1.35731,-0.0657 2.46772,-0.187559 2.46772,-0.270814 0,-0.08325 -0.17729,-0.263988 -0.39412,-0.401637 -0.21674,-0.137641 -0.70715,-0.710304 -1.08988,-1.272587 -0.9352,-1.374172 -1.03356,-2.739442 -0.44588,-6.193007 0.24508,-1.440312 0.44554,-2.701261 0.44554,-2.802116 0,-0.100846 1.002,-0.245041 2.22655,-0.320427 1.22464,-0.0754 2.22654,-0.186656 2.22654,-0.247259 0,-0.06061 -0.24474,-0.662809 -0.54398,-1.338233 -0.72801,-1.643672 -0.88029,-3.428631 -0.42868,-5.026557 0.811,-2.869888 0.70698,-2.681344 1.47985,-2.681344 0.38664,0 1.2739,-0.05388 1.97174,-0.119785 l 1.26892,-0.119786 -0.30589,-1.173005 c -0.56201,-2.154697 -0.0166,-5.927015 0.95123,-6.583574 0.19415,-0.131669 0.93586,-0.239407 1.64833,-0.239407 h 1.29525 l 0.0515,-1.388553 c 0.0457,-1.2438661 0.18044,-1.6380132 1.29102,-3.7826087 1.80451,-3.4847172 2.77177,-6.70949476 2.77177,-9.2410429 V -3.630298 l 1.31029,1.592957 c 1.77045,2.15232383 3.95762,5.2928367 5.03097,7.2238629 2.03306,3.6575996 2.83592,7.2911681 2.06347,9.3387521 -0.19008,0.503724 -0.31885,0.93993 -0.28637,0.96934 0.0324,0.0294 0.99975,-0.16223 2.1492,-0.425857 1.14954,-0.263636 2.20495,-0.439516 2.34543,-0.390838 0.52222,0.181005 1.04901,2.445419 1.05358,4.528755 0.008,2.213305 -0.39827,3.390547 -1.52463,4.45294 l -0.55844,0.526696 h 2.55719 2.55719 l 0.14788,0.813976 c 0.39137,2.153999 0.50976,4.132538 0.32574,5.443413 -0.21575,1.536928 -0.86383,3.102741 -1.49929,3.622152 -0.22248,0.181843 -0.4045,0.394033 -0.4045,0.471538 0,0.07753 1.04112,0.202334 2.31353,0.277417 2.73879,0.161589 2.55652,-0.06406 2.56076,3.168913 0.008,3.348136 -0.81116,5.57891 -2.36412,6.467024 l -0.68098,0.389425 0.72875,0.109388 c 0.40084,0.0602 1.29708,0.174821 1.9916,0.254798 l 1.26285,0.145419 0.1836,0.766094 c 0.10094,0.421357 0.14447,1.627961 0.0968,2.681344 -0.1149,2.535228 -0.66129,3.833619 -2.1973,5.220916 -0.64161,0.57953 -1.01637,1.050591 -0.86857,1.091902 0.14289,0.04 1.05964,0.178016 2.03713,0.306803 l 1.77726,0.234159 -0.11606,2.223086 c -0.17454,3.34513 -0.93237,5.465153 -2.47826,6.932904 -0.89333,0.848191 -0.96253,0.796449 1.53135,1.145647 1.92797,0.269951 1.86209,0.110678 1.23801,2.995752 -0.71903,3.323464 -1.91093,5.610841 -3.39427,6.513706 l -0.7084,0.431147 1.67093,0.706033 c 0.919,0.388324 1.70457,0.728628 1.74569,0.756239 0.0415,0.0276 -0.2086,1.068389 -0.55511,2.312838 -0.72651,2.60953 -1.86276,4.875258 -3.17387,6.329195 -0.61029,0.676697 -0.82629,1.046648 -0.64584,1.10625 0.14904,0.04928 0.65273,0.206522 1.11929,0.349485 1.06687,0.326949 1.11714,0.592531 0.52156,2.758701 -0.95904,3.488027 -2.06745,5.835852 -3.4015,7.204637 -0.87588,0.898799 -0.9769,1.081225 -0.59857,1.081225 0.12785,0 0.7481,0.13539 1.37833,0.300881 l 1.14588,0.300873 v 0.896155 c 0,1.056305 -0.49223,3.697375 -0.96818,5.197955 -0.55778,1.75852 -1.72817,3.75356 -2.73614,4.66393 l -0.94824,0.85648 1.3893,0.23677 c 0.76414,0.13023 1.4359,0.34631 1.49272,0.48019 0.1198,0.28199 -2.30904,5.75012 -3.51399,7.91096 -0.45036,0.80763 -1.16623,1.93382 -1.591,2.50266 -0.76439,1.02391 -0.76813,1.03825 -0.36812,1.43643 0.40035,0.39859 0.37859,0.46895 -2.43689,7.87165 -2.36163,6.20949 -3.16324,8.6286 -4.75192,14.34119 -1.05108,3.77946 -1.88036,6.89951 -1.84272,6.93346 0.0374,0.0339 0.56309,-0.94678 1.16781,-2.17938 0.60471,-1.23262 1.76231,-3.57699 2.57247,-5.20974 1.27266,-2.56489 2.71296,-5.95841 6.12369,-14.42831 0.6789,-1.68587 0.80734,-1.87501 1.2243,-1.80303 0.43491,0.0751 0.47453,-0.01 0.59824,-1.2767 0.14696,-1.50595 0.83176,-4.07917 1.95388,-7.34178 l 0.74088,-2.15416 1.23602,0.56355 1.2361,0.56355 -0.10393,-1.31127 c -0.16225,-2.04807 0.80028,-4.52124 2.9636,-7.61506 l 0.83642,-1.19612 0.77868,0.30031 c 1.83542,0.70782 1.68032,0.75982 1.67284,-0.56093 0,-0.65071 0.20437,-1.87259 0.4624,-2.7153 0.50694,-1.65562 2.41505,-5.45845 2.7388,-5.45845 0.10916,0 0.60414,0.12928 1.09994,0.28729 0.49589,0.15801 0.93129,0.28729 0.9676,0.28729 0.0365,0 0.0133,-0.29443 -0.0515,-0.65429 -0.2474,-1.376688 0.62856,-4.421429 1.96925,-6.845593 l 0.70541,-1.27533 1.54448,0.362305 c 0.84938,0.199271 1.55171,0.363793 1.56068,0.365591 0.009,0.0016 -0.0789,-0.417381 -0.19572,-0.931528 -0.16608,-0.732027 -0.13484,-1.220196 0.14372,-2.250411 0.3844,-1.421347 2.38464,-5.222788 2.82918,-5.37688 0.14971,-0.0519 0.91833,0.242134 1.70806,0.653373 l 1.4359,0.747714 v -1.461452 c 0,-1.334405 0.0789,-1.604504 0.90288,-3.107102 0.49656,-0.905107 1.33239,-2.121936 1.85736,-2.704061 l 0.95463,-1.058402 1.49314,0.777544 c 0.8213,0.427656 1.53344,0.741177 1.5827,0.69672 0.049,-0.04443 -0.0133,-0.415624 -0.13799,-0.824834 -0.28944,-0.946639 0.01,-2.381982 0.78433,-3.762405 0.55853,-0.996048 2.71728,-3.228793 3.12153,-3.228793 0.11548,0 0.79654,0.334644 1.51358,0.743657 l 1.30372,0.743657 -0.0871,-1.234684 c -0.0789,-1.119637 -0.0141,-1.368202 0.6971,-2.667752 0.75035,-1.371199 3.0672,-3.905187 3.57064,-3.905187 0.12429,0 0.91618,0.430933 1.75974,0.957629 0.84356,0.526688 1.56583,0.957522 1.60504,0.957407 0.039,-1.15e-4 0.0862,-0.440312 0.10427,-0.97821 0.0507,-1.517973 1.107,-3.193725 3.21,-5.093755 0.96719,-0.873841 1.85943,-1.588802 1.9828,-1.588802 0.12337,0 0.9303,0.570767 1.7933,1.268382 l 1.56907,1.268382 v -0.883277 c 0,-1.112739 0.60306,-2.563661 1.48218,-3.566182 0.57256,-0.652936 2.43565,-2.084871 3.32764,-2.557599 0.15561,-0.08245 0.71621,0.413398 1.47769,1.306859 1.2356,1.449863 1.55844,1.686971 1.55844,1.144794 0,-1.585106 3.63379,-4.409601 7.63385,-5.933693 3.08872,-1.176873 9.0509,-2.760968 8.76071,-2.327645 -0.0831,0.123719 -0.46681,0.624339 -0.85311,1.112492 -1.17371,1.483076 -2.35183,4.006772 -3.03771,6.507054 -0.49871,1.817728 -0.83226,2.613858 -1.42552,3.401659 l -0.77452,1.028515 0.8949,0.695209 c 0.50287,0.390697 0.89333,0.862983 0.89142,1.078252 -0.008,0.903637 -1.30863,2.856476 -2.75957,4.143723 l -1.46888,1.303262 1.15576,0.915472 c 0.63563,0.503511 1.15693,1.021542 1.15843,1.151175 0,0.129633 -0.37684,0.957136 -0.84066,1.838893 -0.93129,1.770431 -2.09852,2.906379 -3.71569,3.616009 l -0.96162,0.42194 1.4045,1.278328 1.4045,1.278327 -0.72227,1.028088 c -0.39728,0.565452 -1.07518,1.602081 -1.5066,2.303622 -1.13749,1.850055 -2.89332,3.019463 -4.5488,3.029565 -0.37899,0.0025 -0.68912,0.05018 -0.68912,0.10639 0,0.109659 2.34767,2.119562 2.90794,2.489621 0.30008,0.198178 0.2641,0.319229 -0.32466,1.092124 -1.93819,2.544401 -4.15019,4.035518 -6.02241,4.059713 -0.55753,0.0074 -1.01371,0.0441 -1.01379,0.08205 -8e-5,0.03794 0.47694,0.54042 1.06006,1.116705 0.5832,0.576286 1.06031,1.137033 1.06031,1.2461 0,0.357124 -1.4752,2.023077 -2.6504,2.993206 -1.3927,1.149631 -2.78781,1.788569 -4.16672,1.908229 -0.56584,0.0491 -1.02883,0.12245 -1.02883,0.16298 0,0.0406 0.45161,0.68701 1.00349,1.43663 l 1.0034,1.36294 -1.86491,1.60669 c -2.36096,2.03404 -3.96717,2.82265 -5.77575,2.83572 l -1.2867,0.009 0.91559,1.27844 c 0.50361,0.70315 0.91567,1.31724 0.91567,1.36464 0,0.0474 -0.71105,0.53013 -1.58004,1.07273 -2.29707,1.43425 -4.61218,2.37747 -6.0691,2.47265 l -1.20835,0.0789 0.49057,1.07984 0.49065,1.07983 -0.88601,0.71688 c -2.54457,2.05881 -5.02499,3.11419 -6.95927,2.96111 l -1.19606,-0.0947 0.20736,0.69815 c 0.11398,0.38399 0.44596,1.07121 0.73764,1.52717 0.29168,0.45596 0.49805,0.85592 0.45858,0.8888 -0.0399,0.0329 -1.25579,0.75762 -2.70299,1.61054 -3.04842,1.79656 -4.57163,2.38005 -5.97563,2.28898 l -0.973,-0.0632 0.65498,1.09278 c 0.77693,1.29627 0.74636,1.37494 -1.04453,2.68591 -1.62814,1.19184 -3.88592,2.02682 -6.21124,2.29707 -1.01404,0.11784 -1.87173,0.2321 -1.90612,0.25391 -0.0341,0.0219 0.19523,0.621 0.51009,1.33153 0.649,1.46411 0.80095,1.19594 -1.28869,2.27436 -1.34111,0.69212 -5.15616,2.08548 -6.65412,2.43023 -1.10252,0.25377 -1.13076,0.27712 -1.0275,0.85169 0.0934,0.51969 0.0258,0.62159 -0.56276,0.84704 -0.78309,0.30003 -3.27032,1.67976 -7.5605,4.19401 -3.04801,1.78621 -5.50193,3.76595 -10.66965,8.60765 -1.2145,1.1379 -1.24408,1.18725 -0.55487,0.92698 1.71055,-0.64601 8.15491,-3.39622 8.97422,-3.82989 1.05956,-0.56086 6.74792,-4.38899 8.37016,-5.6329 0.97267,-0.74586 1.19407,-0.83923 1.53443,-0.64722 0.21883,0.12342 0.43366,0.2244 0.47736,0.2244 0.044,0 0.62997,-0.6491 1.30273,-1.44246 1.21018,-1.42704 4.64782,-4.49481 5.0367,-4.49481 0.11075,0 0.63496,0.34475 1.16499,0.76611 0.52995,0.42134 1.03522,0.76609 1.12279,0.76609 0.0876,0 0.21508,-0.20109 0.28337,-0.44687 0.46407,-1.66994 2.91126,-4.14996 5.06312,-5.13107 l 1.31494,-0.59952 0.90687,0.90473 c 0.83052,0.82853 0.90687,0.86526 0.90687,0.43612 0,-0.95083 1.43806,-2.34956 4.46979,-4.34747 l 1.96759,-1.29672 1.15884,1.07206 1.15884,1.07205 0.27,-0.82598 c 0.37733,-1.15405 1.22613,-2.18902 2.50219,-3.05075 1.23643,-0.835 3.03447,-1.76787 3.40748,-1.76787 0.13733,0 0.56966,0.29812 0.9607,0.66249 l 0.71089,0.66248 0.47279,-0.90189 c 0.53203,-1.015 2.08017,-2.43088 4.12128,-3.7692 l 1.37368,-0.90066 0.53485,0.5499 c 0.29409,0.30244 0.79272,0.84859 1.10791,1.21364 l 0.57323,0.66376 0.01,-0.53621 c 0.0249,-1.34469 1.59765,-2.7528 4.55594,-4.07922 1.70673,-0.76522 2.0962,-0.87725 2.24308,-0.64512 0.0979,0.1545 0.55545,0.73566 1.01702,1.29147 0.81997,0.98742 0.8424,0.99923 0.97682,0.51537 0.18244,-0.65635 1.68281,-2.1077 2.77868,-2.68772 1.03023,-0.54532 3.1521,-1.23227 3.80633,-1.23227 0.35075,0 0.60023,0.26893 1.06604,1.14915 0.33447,0.63203 0.67409,1.14915 0.75467,1.14915 0.0806,0 0.20695,-0.27251 0.28064,-0.60558 0.17521,-0.7911 1.59798,-2.00521 3.01153,-2.56984 0.98123,-0.39194 3.52554,-1.08707 3.59591,-0.98243 0.0149,0.022 0.34668,0.76663 0.73747,1.65466 0.60422,1.37314 0.7442,1.56157 0.93628,1.26008 0.44055,-0.69159 1.68712,-1.85021 2.29732,-2.1352 0.34045,-0.15902 1.72235,-0.45959 3.07086,-0.66795 1.3485,-0.20834 2.5365,-0.39586 2.63993,-0.41669 0.10343,-0.0209 0.47495,0.56258 0.8257,1.29648 0.35067,0.73389 0.67725,1.37021 0.72576,1.41404 0.0482,0.0439 0.44496,-0.20318 0.88087,-0.5489 1.23892,-0.98246 2.69044,-1.47498 4.6744,-1.58603 l 1.74187,-0.0975 0.43167,1.04199 c 0.23744,0.57309 0.43167,1.12494 0.43167,1.22633 0,0.27311 0.23968,0.22605 1.01038,-0.19836 1.74902,-0.96316 5.19355,-1.51106 5.72159,-0.91009 0.11573,0.13167 0.32566,0.5626 0.46656,0.95762 0.14082,0.39502 0.32026,0.71515 0.39869,0.7114 0.0781,-0.004 0.66744,-0.12014 1.30887,-0.25864 0.97657,-0.21086 1.51126,-0.20745 3.28677,0.0209 2.48542,0.3197 5.12103,0.20667 7.17486,-0.30772 0.84664,-0.21205 1.34485,-0.26693 1.25903,-0.13872 -1.8532,2.77053 -6.0966,6.97668 -8.46238,8.38811 -1.3947,0.83204 -3.20046,1.38375 -4.1271,1.26092 -0.33853,-0.0448 -0.61443,-0.0319 -0.61319,0.0289 0,0.0608 0.4266,0.71377 0.94509,1.45114 l 0.94267,1.34067 -0.46789,0.33769 c -0.94957,0.68527 -3.46896,1.68534 -4.52902,1.79782 -0.7378,0.0783 -1.4089,0.0185 -2.06753,-0.1842 -0.53635,-0.16505 -0.97516,-0.26773 -0.97516,-0.22816 0,0.0396 0.28836,0.74537 0.64077,1.56845 0.63845,1.49095 0.6392,1.49769 0.21401,1.81308 -0.69577,0.51611 -3.40773,1.45951 -4.91824,1.71089 -1.19091,0.19819 -1.55694,0.18865 -2.40208,-0.0627 -0.98629,-0.29325 -0.9961,-0.29201 -0.90006,0.11428 0.0532,0.22591 0.22597,0.95456 0.38357,1.61922 0.33978,1.4333 0.42145,1.35035 -2.03007,2.06349 -2.19522,0.63858 -4.13947,0.69036 -5.36461,0.14287 l -0.88493,-0.39545 0.10135,0.40556 c 0.5189,2.07747 0.52214,2.12464 0.16366,2.36855 -1.64974,1.12247 -5.58958,1.48832 -7.13639,0.66269 -0.45202,-0.24129 -0.86865,-0.39651 -0.92581,-0.34491 -0.0573,0.0516 1.7e-4,0.62713 0.12736,1.27897 0.12711,0.65185 0.18684,1.24985 0.13276,1.3289 -0.054,0.079 -0.88411,0.33521 -1.84448,0.56925 -2.13241,0.51969 -5.2478,0.49195 -6.17194,-0.0549 -0.74604,-0.44151 -0.75974,-0.43212 -0.56817,0.39068 0.092,0.39502 0.22763,1.03323 0.30141,1.41824 l 0.13416,0.70002 -1.4938,0.22757 c -2.28104,0.3475 -5.41936,0.19215 -6.50185,-0.32187 l -0.8802,-0.41798 -0.12412,0.41798 c -0.0681,0.22989 -0.12685,0.67653 -0.13026,0.99255 -0.0116,1.11828 -0.11099,1.1501 -3.54414,1.13909 -2.65896,-0.009 -3.30148,-0.0703 -4.23078,-0.40648 l -1.09553,-0.3964 -0.1208,0.40646 c -0.0665,0.22357 -0.12212,0.63575 -0.1237,0.91598 0,0.50169 -0.0316,0.51162 -1.84779,0.6483 -2.67965,0.20161 -5.55735,0.006 -6.71461,-0.45632 l -0.96261,-0.38459 -0.0631,1.08276 -0.0631,1.08275 -1.16632,0.2629 c -0.65481,0.14762 -2.42152,0.27521 -4.0289,0.29099 -2.6833,0.0264 -2.93211,-0.003 -3.96899,-0.46618 l -1.10626,-0.49428 0.12819,1.10781 0.12819,1.10779 -1.5665,-0.0943 c -3.68986,-0.22214 -6.50741,-0.51861 -7.84528,-0.82547 -1.35233,-0.31019 -1.43856,-0.31024 -1.52812,-8.2e-4 -0.0873,0.30164 -0.86151,0.33462 -9.71526,0.41381 -8.03404,0.0719 -16.7061,0.41348 -16.44657,0.64789 0.22364,0.20197 9.11378,0.82609 13.34672,0.93699 4.27755,0.11207 5.0362,0.17536 5.0362,0.42014 0,0.20864 0.13168,0.25331 0.47711,0.16184 1.10451,-0.29253 3.16291,-0.48544 5.2184,-0.48904 l 2.19672,-0.004 -0.0882,0.68301 c -0.0798,0.6162 -0.0457,0.67113 0.34784,0.56164 2.04752,-0.56968 2.72875,-0.59142 5.2802,-0.16847 l 1.8753,0.31086 -0.0798,0.75435 c -0.0723,0.68711 -0.0415,0.7426 0.35125,0.62278 0.68439,-0.20893 4.07277,-0.32628 5.32864,-0.18456 1.14322,0.12901 1.14571,0.13079 1.14571,0.80634 0,0.56874 0.0598,0.65538 0.37111,0.54157 0.94608,-0.34539 3.03671,-0.52735 4.55909,-0.3968 l 1.64343,0.14093 v 0.94128 c 0,1.03758 0.0208,1.05788 0.6966,0.67549 0.25829,-0.14618 0.83019,-0.32292 1.27083,-0.39274 0.79338,-0.12572 3.89655,0.18927 4.34816,0.44137 0.16532,0.0923 0.17321,0.37673 0.0266,0.96537 -0.11414,0.459 -0.16981,0.86867 -0.12362,0.91038 0.0465,0.0417 0.34195,-0.0127 0.65731,-0.12103 0.90595,-0.31111 2.71254,-0.23067 4.21158,0.18753 l 1.378,0.38443 -0.18427,0.71684 c -0.34169,1.32888 -0.30173,1.39527 0.59259,0.98349 0.96984,-0.4466 1.99767,-0.46006 3.3632,-0.044 1.79754,0.54764 1.98479,0.72159 1.73482,1.6112 -0.2538,0.90311 -0.15245,1.05578 0.49339,0.74356 0.65332,-0.31579 2.55553,-0.12845 4.06504,0.40034 1.34144,0.46991 1.38954,0.56848 0.93785,1.9236 l -0.28138,0.84442 h 1.60671 c 1.29965,0 1.82968,0.0965 2.77302,0.50488 1.96942,0.85254 1.9656,0.8466 1.37584,2.13858 l -0.50735,1.11126 0.46706,-0.13465 c 1.34842,-0.38883 3.92081,0.26663 4.90627,1.25017 0.35681,0.35605 0.34535,0.40562 -0.28437,1.23232 -0.36089,0.47373 -0.65615,0.91045 -0.65615,0.97048 0,0.06 0.28944,0.10913 0.64319,0.10913 1.1217,0 2.77186,0.92865 4.55203,2.56163 1.62473,1.49041 4.08182,4.44518 3.86166,4.64398 -0.0581,0.0522 -0.64285,-0.0462 -1.29999,-0.21872 -0.88476,-0.23232 -1.89481,-0.30161 -3.89273,-0.26705 -1.48384,0.0256 -3.04344,-0.0182 -3.46588,-0.0974 -0.72419,-0.13582 -0.78109,-0.11017 -0.99718,0.44977 -0.12602,0.32659 -0.38506,0.64782 -0.57555,0.71384 -0.49938,0.17308 -2.41447,-0.25443 -3.5071,-0.78289 l -0.93777,-0.45362 -0.34834,0.79512 -0.34826,0.79512 -1.13607,-0.009 c -1.568,-0.0119 -2.11672,-0.17307 -3.24964,-0.95412 l -0.97998,-0.67558 -0.44213,0.91494 c -0.24325,0.50321 -0.46839,0.94255 -0.50037,0.97629 -0.0316,0.0338 -0.88585,-0.0871 -1.89756,-0.26858 -2.01595,-0.36161 -2.9224,-0.80472 -3.65505,-1.78668 l -0.48069,-0.64413 -0.56309,1.1275 c -0.3098,0.62012 -0.58104,1.14926 -0.60297,1.17587 -0.0216,0.0266 -0.60397,-0.12695 -1.29359,-0.34124 -1.69735,-0.52746 -2.75442,-1.19403 -3.23494,-2.03988 l -0.40084,-0.70571 -0.50569,0.79953 c -0.27814,0.43975 -0.57365,0.8002 -0.65672,0.80101 -0.0832,7.7e-4 -0.66944,-0.1737 -1.30307,-0.3878 -1.55179,-0.5244 -2.82893,-1.39178 -3.26483,-2.21732 l -0.3594,-0.68082 -0.77153,0.81718 -0.77154,0.81719 -1.23169,-0.54428 c -1.55853,-0.68872 -2.82046,-1.71321 -3.25903,-2.64588 l -0.34128,-0.72583 -0.66137,0.77721 -0.66138,0.77723 -1.29708,-0.88069 c -1.50685,-1.02305 -2.52113,-2.06586 -2.73821,-2.81522 l -0.15303,-0.52832 -0.57373,0.48044 c -0.31544,0.26425 -0.66237,0.48045 -0.77079,0.48045 -0.41704,0 -2.82752,-1.60211 -3.36104,-2.23392 -0.3083,-0.36501 -0.61776,-0.9813 -0.68779,-1.36952 l -0.12728,-0.70586 -0.94209,0.79327 -0.94209,0.79326 -1.59865,-1.17448 c -1.9106,-1.40367 -2.26517,-1.74529 -2.68097,-2.58331 l -0.31711,-0.63906 -0.54847,0.49542 c -0.30174,0.27248 -0.65606,0.49542 -0.78749,0.49542 -0.13151,0 -0.74046,-0.30503 -1.3534,-0.67784 -1.25746,-0.76485 -2.46764,-2.13091 -2.83525,-3.20053 -0.13575,-0.39502 -0.29875,-0.71822 -0.36222,-0.71822 -0.0631,0 -0.41979,0.26652 -0.79197,0.59228 -0.55919,0.48958 -0.7491,0.55721 -1.09504,0.38999 -0.52604,-0.25429 -2.43415,-2.1265 -3.39826,-3.33431 -0.54822,-0.6869 -0.82861,-0.88758 -1.12237,-0.80337 -0.26809,0.0769 -0.67807,-0.12309 -1.30073,-0.63434 -3.01993,-2.47974 -5.7294,-4.20903 -8.856,-5.65217 -1.77976,-0.82151 -3.29616,-1.43924 -3.36976,-1.37275 -0.27034,0.2442 -0.14531,36.21385 0.14114,40.59674 0.15154,2.31744 0.32492,4.36436 0.3854,4.54871 0.0998,0.30395 -0.0937,0.33518 -2.07784,0.33542 l -2.18775,1.9e-4 z m 43.16019,-23.63558 c -0.32607,-0.51601 -0.78034,-1.26818 -1.00938,-1.6715 -0.22921,-0.40331 -0.44828,-0.64763 -0.48692,-0.54292 -0.0382,0.1047 0.13584,0.52322 0.38772,0.93006 1.06439,1.71897 1.52679,2.38015 1.61145,2.30377 0.0498,-0.0447 -0.17687,-0.50341 -0.50287,-1.01941 z m 3.86532,-0.18099 c -0.17629,-0.30535 -0.32117,-0.44179 -0.32184,-0.30319 0,0.31968 0.42652,1.05337 0.5498,0.94205 0.0507,-0.046 -0.0515,-0.3335 -0.22796,-0.63886 z m -1.17138,-2.27891 c -0.12312,-0.29256 -0.27249,-0.48803 -0.33189,-0.43436 -0.0598,0.0536 0.008,0.32455 0.14638,0.60195 0.1399,0.27741 0.28927,0.47287 0.33197,0.43435 0.0424,-0.0385 -0.0233,-0.30937 -0.14646,-0.60194 z m -0.70449,-1.63625 c -0.13401,-0.32057 -0.27499,-0.49772 -0.31345,-0.39366 -0.0681,0.185 0.31826,0.97653 0.47686,0.97653 0.044,0 -0.0291,-0.26229 -0.16341,-0.58287 z m 4.45425,0.16391 c -0.0681,-0.15278 -0.11797,-0.10741 -0.12811,0.11571 -0.009,0.2019 0.0407,0.31502 0.11133,0.25138 0.0706,-0.0636 0.0781,-0.22883 0.0166,-0.36709 z m 3.35398,-0.92171 c 0.0723,-0.10534 0.0357,-0.19153 -0.0814,-0.19153 -0.11664,0 -0.27099,0.0862 -0.34311,0.19153 -0.0723,0.10534 -0.0357,0.19152 0.0814,0.19152 0.11664,0 0.271,-0.0862 0.34311,-0.19152 z m -0.63612,-0.19153 c 0.0723,-0.10534 -0.0125,-0.19152 -0.18709,-0.19152 -0.17496,0 -0.377,0.0862 -0.44912,0.19152 -0.0723,0.10534 0.0125,0.19153 0.18701,0.19153 0.17496,0 0.37709,-0.0862 0.4492,-0.19153 z m -2.12054,-0.76609 c 0.0723,-0.10534 0.054,-0.1927 -0.0407,-0.19414 -0.0943,-0.002 -0.38622,-0.0546 -0.64866,-0.1181 -0.29675,-0.0719 -0.47711,-0.0304 -0.47711,0.10967 0,0.12385 0.0889,0.17559 0.19739,0.11498 0.10858,-0.0606 0.25737,-0.0226 0.33064,0.0845 0.16981,0.24821 0.46955,0.24968 0.63828,0.003 z m 3.17595,-0.79283 c 0.11389,-0.0964 -0.10078,-0.0783 -0.47711,0.0402 -0.37643,0.11851 -0.68439,0.25593 -0.68439,0.3054 0,0.1323 0.91999,-0.14149 1.1615,-0.34566 z m -5.40249,0.0267 c 0,-0.10534 -0.0877,-0.19153 -0.19474,-0.19153 -0.10708,0 -0.3456,-0.0523 -0.53011,-0.11625 -0.18451,-0.064 -0.33538,-0.0272 -0.33538,0.0817 0,0.17113 0.32882,0.31541 0.90122,0.39536 0.0875,0.0122 0.15901,-0.064 0.15901,-0.16931 z m -109.38969,-19.0492 c 0.39246,-0.15387 0.60522,-0.28315 0.47279,-0.28728 -0.13234,-0.004 -0.56176,0.11841 -0.95422,0.27229 -0.39237,0.15389 -0.60513,0.28317 -0.47279,0.28729 0.13242,0.004 0.56185,-0.11841 0.95422,-0.2723 z m 1.98587,-0.67783 c 0.46648,-0.19505 0.70507,-0.35742 0.53011,-0.36082 -0.17496,-0.003 -0.65207,0.15898 -1.06022,0.36082 -0.94401,0.46679 -0.58628,0.46679 0.53011,0 z m 13.61149,-5.67747 c -0.10501,-0.0949 -1.20653,0.26655 -1.20653,0.39585 0,0.0498 0.29119,-8.2e-4 0.647,-0.11317 0.35582,-0.11204 0.60763,-0.23924 0.55953,-0.28268 z m 127.60388,0.14344 c -0.26917,-0.2289 -2.216,-0.58667 -2.216,-0.40722 0,0.0776 0.40559,0.22917 0.90122,0.33683 1.20811,0.26239 1.56284,0.28138 1.31478,0.0704 z m -126.05375,-0.92342 c 0.24541,-0.22181 0.14846,-0.21154 -0.42411,0.0449 -0.94591,0.42373 -1.09778,0.5608 -0.42411,0.38275 0.2916,-0.077 0.67326,-0.26951 0.84822,-0.42767 z m 1.06023,-0.43743 c 0.17496,-0.10211 0.22273,-0.18566 0.10609,-0.18566 -0.11664,0 -0.35524,0.0836 -0.5302,0.18566 -0.17488,0.10212 -0.22265,0.18566 -0.10601,0.18566 0.11664,0 0.35524,-0.0835 0.53012,-0.18566 z m 0.39577,-1.16902 c -0.42601,-0.24377 -0.75932,-0.20742 -0.88859,0.0969 -0.12295,0.28941 0.0191,0.49754 0.33879,0.49754 0.10966,0 0.14264,-0.13376 0.0731,-0.29724 -0.0723,-0.17044 -0.0366,-0.24732 0.0834,-0.18022 0.11523,0.0644 0.21251,0.26276 0.216,0.44088 0.008,0.28419 0.0349,0.28001 0.23677,-0.0341 0.17454,-0.27134 0.16017,-0.39809 -0.0598,-0.52376 z m -5.36984,-1.76494 c -0.37775,-0.11374 -0.6568,-0.0892 -0.87878,0.0772 -0.28645,0.2147 -0.26652,0.27233 0.16615,0.48218 0.41073,0.19916 0.55512,0.18648 0.87887,-0.0772 0.37169,-0.30281 0.36504,-0.32225 -0.16624,-0.48218 z m -0.36695,0.31331 c 0.15311,-0.0554 0.33597,-0.0485 0.40641,0.0151 0.0706,0.0637 -0.0548,0.10891 -0.2783,0.10059 -0.24699,-0.009 -0.29725,-0.0546 -0.12811,-0.11571 z m 8.21955,-0.86447 c -0.39836,-0.51377 -0.432,-0.36629 -0.0764,0.33767 0.14139,0.28025 0.29168,0.41581 0.33388,0.30124 0.0424,-0.11457 -0.0731,-0.40208 -0.25704,-0.63891 z m 124.98829,0.51649 c -0.14522,-0.15801 -0.35616,-0.28729 -0.46881,-0.28729 -0.11257,0 -0.96427,-0.30165 -1.89274,-0.67034 -1.77859,-0.70632 -2.09154,-0.78026 -2.09154,-0.4942 0,0.0969 0.49788,0.3255 1.10642,0.50806 0.60853,0.18255 1.5866,0.52926 2.17354,0.77046 1.26817,0.52117 1.52803,0.55956 1.17313,0.17331 z m -131.68371,-0.63373 c 0,-0.0852 -0.14472,-0.32222 -0.32151,-0.52669 -0.29816,-0.34475 -0.30339,-0.33348 -0.0723,0.15491 0.24973,0.52699 0.39353,0.66288 0.39353,0.37178 z m 137.83314,-2.52643 c -0.4153,-0.24239 -0.69602,-0.24239 -0.53011,0 0.0723,0.10534 0.29243,0.19021 0.48965,0.1886 0.30897,-0.002 0.31461,-0.0286 0.0407,-0.1886 z m -133.54895,-1.71937 c -0.19872,-0.31363 -0.39129,-0.49078 -0.42801,-0.39367 -0.0913,0.24155 0.35416,0.9639 0.5945,0.9639 0.10709,0 0.0324,-0.25661 -0.16649,-0.57023 z m 127.53975,-0.12276 c -0.33098,-0.16204 -0.66221,-0.24009 -0.73598,-0.17345 -0.18883,0.17052 0.40633,0.47845 0.91376,0.47278 0.34976,-0.004 0.31852,-0.0564 -0.17778,-0.29933 z m -122.48734,-1.40312 c -0.12138,-0.2048 -0.3255,-0.43088 -0.4536,-0.50239 -0.12811,-0.0715 -0.0689,0.0961 0.13159,0.37238 0.42444,0.58508 0.64418,0.67382 0.32201,0.13001 z m 134.10531,-0.37218 c -0.32558,-0.27473 -1.15568,-0.4485 -1.15568,-0.24192 0,0.2218 0.36587,0.37566 0.94359,0.39679 0.25022,0.009 0.33397,-0.052 0.21209,-0.15487 z m -1.57979,-0.40458 c 0,-0.10534 -0.21467,-0.1902 -0.47711,-0.18859 -0.38581,0.002 -0.41621,0.0384 -0.15901,0.18859 0.41107,0.23996 0.63612,0.23996 0.63612,0 z m -4.97074,-1.82557 c -0.22638,-0.15466 -0.51267,-0.27846 -0.63612,-0.27511 -0.12353,0.003 -0.039,0.13263 0.18709,0.28729 0.22638,0.15465 0.51267,0.27845 0.63612,0.27511 0.12354,-0.003 0.039,-0.13264 -0.18709,-0.28729 z m 2.58078,-3.26978 c -0.0706,-0.0637 -0.25338,-0.0705 -0.40649,-0.0151 -0.16915,0.0611 -0.11888,0.10652 0.12819,0.11571 0.22347,0.008 0.34875,-0.037 0.2783,-0.10059 z m 0.90563,-0.24606 c 0,-0.0936 0.15668,-0.15827 0.34825,-0.14364 0.19158,0.0146 0.38615,-0.0698 0.4325,-0.18769 0.0532,-0.13602 -0.11248,-0.18034 -0.45426,-0.12133 -0.29625,0.0512 -0.53859,0.17421 -0.53859,0.27349 0,0.0993 -0.11016,0.119 -0.24474,0.0438 -0.1517,-0.0847 -0.18734,-0.0526 -0.0936,0.0845 0.17853,0.26086 0.55039,0.29523 0.55039,0.0508 z m -118.96065,-0.2128 c 0,-0.16977 -0.45476,-0.27787 -0.90121,-0.21421 -0.0875,0.0125 -0.15901,-0.0535 -0.15901,-0.14651 0,-0.0931 -0.18369,-0.21257 -0.40824,-0.2656 -0.71247,-0.16827 -0.24683,0.41765 0.48384,0.60886 0.90495,0.23683 0.98462,0.23824 0.98462,0.0175 z m 121.53387,-0.51996 c 0.0465,0.0227 0.0108,-0.0413 -0.0797,-0.14217 -0.0986,-0.11015 -0.31163,-0.0439 -0.53369,0.16601 -0.35358,0.33421 -0.35017,0.34037 0.0797,0.14218 0.24707,-0.11394 0.48717,-0.18864 0.53361,-0.16602 z m 4.19472,-1.1318 c 0.049,-0.0396 0.0291,-0.12541 -0.0432,-0.19073 -0.21276,-0.19218 -1.2415,0.11155 -1.09637,0.32369 0.11465,0.16745 0.88037,0.0781 1.13949,-0.13296 z m -131.54746,-0.55687 c -0.22647,-0.15466 -0.56044,-0.27845 -0.74221,-0.2751 -0.26427,0.005 -0.24798,0.0625 0.0814,0.28728 0.22638,0.15466 0.56035,0.27846 0.74212,0.27511 0.26427,-0.005 0.24807,-0.0625 -0.0814,-0.28729 z m 135.07723,-2.34405 c -0.15211,-0.13744 -0.52712,0.14474 -0.78308,0.58921 -0.23071,0.40068 -0.21592,0.39866 0.31611,-0.0434 0.30696,-0.25499 0.51707,-0.50063 0.46697,-0.54588 z M 561.14707,123.0987 c -0.15535,-0.29736 -0.3063,-0.3855 -0.44537,-0.25999 -0.13899,0.12552 -0.11332,0.244 0.0756,0.3495 0.1806,0.10082 0.20619,0.20413 0.0689,0.2805 -0.11913,0.0665 -0.25629,0.0134 -0.30473,-0.11799 -0.064,-0.17273 -0.19041,-0.14654 -0.45742,0.0946 -0.35083,0.31693 -0.34734,0.33345 0.0698,0.33345 0.24158,0 0.43922,0.0853 0.43922,0.18966 0,0.1043 0.17729,0.0525 0.39404,-0.11509 0.32433,-0.25084 0.35249,-0.38431 0.15909,-0.75461 z m -3.73389,-0.0653 c 0,-0.0939 -0.22971,-0.22283 -0.51043,-0.28646 -0.28071,-0.0636 -0.68629,-0.17291 -0.90121,-0.24281 -0.22913,-0.0745 -0.31869,-0.055 -0.2165,0.0471 0.13392,0.1339 0.96485,0.47065 1.57514,0.6384 0.0291,0.008 0.0532,-0.0623 0.0532,-0.15619 z m 2.00921,-1.61695 c -0.0988,-0.31883 -0.0789,-0.34962 0.0859,-0.13308 0.32566,0.42792 0.5184,0.10001 0.20644,-0.35117 -0.24483,-0.3541 -0.3083,-0.36475 -0.62598,-0.10505 -0.28612,0.23385 -0.30838,0.37544 -0.11681,0.74208 0.28579,0.54708 0.63105,0.42999 0.45044,-0.15278 z m -0.88069,-1.96675 c -0.0623,-0.14715 -0.20446,-0.26755 -0.31553,-0.26755 -0.11099,0 -0.14289,-0.0862 -0.0706,-0.19152 0.14647,-0.2141 -0.11805,-0.24886 -0.60621,-0.0797 -0.55495,0.19235 0,0.99798 0.61012,0.89196 0.3176,-0.0549 0.45518,-0.18194 0.3824,-0.35322 z m 6.06627,-0.41119 c 0.008,-0.13167 -0.0964,-0.23941 -0.23245,-0.23941 -0.13608,0 -0.18717,0.0545 -0.11348,0.12094 0.0739,0.0665 0.0449,0.27066 -0.0631,0.45364 -0.10841,0.18297 -0.13193,0.39158 -0.0523,0.46358 0.14738,0.13315 0.43424,-0.36348 0.46133,-0.79875 z m 126.12744,0.14364 c 0.30099,-0.21386 0.4094,-0.38036 0.24549,-0.37696 -0.32441,0.007 -1.0358,0.44455 -1.0358,0.63748 0,0.21208 0.23344,0.13512 0.79031,-0.26052 z m 3.58543,-1.8183 c 0.33414,-0.15736 0.45867,-0.28664 0.27681,-0.28729 -0.18177,-5.8e-4 -0.51574,0.12536 -0.74212,0.28002 -0.53552,0.36584 -0.30357,0.36946 0.46531,0.007 z m -129.16423,-1.30798 c 0.0565,-0.39938 0.009,-0.70421 -0.11091,-0.70421 -0.11589,0 -0.21076,0.11851 -0.21076,0.26335 0,0.14483 -0.0607,0.55422 -0.13401,0.90974 -0.10035,0.48389 -0.0723,0.59472 0.11091,0.44086 0.13475,-0.11303 0.28994,-0.52242 0.34477,-0.90974 z m 123.62782,-0.0927 c -0.0656,-0.059 -0.23644,-1.2e-4 -0.38024,0.13077 -0.20786,0.18916 -0.18352,0.21115 0.11863,0.10722 0.20919,-0.072 0.32683,-0.17902 0.26161,-0.23799 z m -123.52539,-0.99461 c 0,-0.10534 -0.10102,-0.19153 -0.22455,-0.19153 -0.12354,0 -0.16557,0.0862 -0.0935,0.19153 0.0723,0.10534 0.17313,0.19153 0.22455,0.19153 0.0515,0 0.0935,-0.0862 0.0935,-0.19153 z m 0.2121,-0.56327 c 0,-0.0991 -0.0955,-0.23348 -0.2121,-0.29859 -0.11664,-0.0651 -0.21201,0.016 -0.21201,0.18022 0,0.16422 0.0954,0.29859 0.21201,0.29859 0.11664,0 0.2121,-0.0811 0.2121,-0.18022 z m 37.23781,-31.948019 c 0.43017,-0.511789 0.34809,-0.725079 -0.12894,-0.33517 -0.41538,0.339531 -0.55769,0.670332 -0.28844,0.670332 0.0748,0 0.26244,-0.150823 0.41738,-0.335162 z m -95.3148,-26.34926 c -0.31045,-0.280415 -0.44911,-0.323261 -0.44911,-0.138774 0,0.383396 0.70989,1.054804 0.81482,0.770603 0.0457,-0.124393 -0.11864,-0.408716 -0.36571,-0.631829 z m -1.33587,-1.565444 c -0.13293,-0.263348 -0.32168,-0.478814 -0.41954,-0.478814 -0.23436,0 -0.22464,0.138158 0.0415,0.587167 0.32616,0.55053 0.66187,0.454316 0.37808,-0.108353 z m -1.23378,-1.62796 c -0.24915,-0.316018 -0.49663,-0.574578 -0.54997,-0.574578 -0.0532,0 0.0507,0.25856 0.23195,0.574578 0.18086,0.316017 0.42843,0.574569 0.54997,0.574569 0.12163,0 0.0174,-0.258552 -0.23195,-0.574569 z"
     id="path11" /><text
     x="50%"
     y="75%"
     dominant-baseline="middle"
     text-anchor="middle"
     fill="#ffffff"
     font-family="Arial"
     font-size="24px"
     id="text3"
     style="white-space:pre;inline-size:364.212;display:inline"
     transform="matrix(0.82807294,0,0,0.57821004,554.21851,52.046728)"
     xml:space="preserve"><tspan
       x="50"
       y="150"
       id="tspan2"><tspan
         style="font-family:'Snap ITC';-inkscape-font-specification:'Snap ITC'"
         id="tspan1">Los mejores productos</tspan><tspan
         y="150"
         id="tspan3"> </tspan></tspan><tspan
       x="50"
       y="180.38373"
       id="tspan7"><tspan
         style="font-family:'Snap ITC';-inkscape-font-specification:'Snap ITC'"
         id="tspan4">para ti</tspan></tspan></text><path
     d="M50,160 Q600,60 1150,160"
     stroke="rgba(255,255,255,0.1)"
     stroke-width="2"
     fill="none"
     id="path4" /><text
     xml:space="preserve"
     style="font-style:normal;font-variant:normal;font-weight:normal;font-stretch:normal;font-family:'Goudy Stout';-inkscape-font-specification:'Goudy Stout';text-align:start;writing-mode:lr-tb;direction:ltr;text-anchor:start;white-space:pre;inline-size:245.384;display:inline;fill:#ffffff"
     x="497.46194"
     y="68.358711"
     id="text5"
     transform="matrix(2.2197903,0,0,3.3023359,-774.10108,-118.86398)"><tspan
       x="497.46194"
       y="68.358711"
       id="tspan8">Tienda de PACHO</tspan></text></svg>
